<svg xmlns="http://www.w3.org/2000/svg" version="1.1" xmlns:xlink="http://www.w3.org/1999/xlink" xmlns:svgjs="http://svgjs.dev/svgjs" width="720" height="720"><svg id="SvgjsSvg1141" xmlns="http://www.w3.org/2000/svg" viewBox="0 0 720 720"><g id="SvgjsG1140"><path d="M360,0C198.8064575,0,62.3670654,105.9466248,16.4923096,252.0001221h34.9362793l51.4285736-.0001221h178.588089l39.2773132-.0001221h39.2774353v-71.9998779h-183.5767822c.5916443-.6030579,1.151001-1.2292175,1.7492676-1.8274841,48.5678711-48.5677185,113.1422119-75.3153687,181.8275146-75.3153687s133.2596436,26.7476196,181.8273926,75.3153687c48.567749,48.5678406,75.3154907,113.1422424,75.3154907,181.8274841s-26.7477417,133.2596436-75.3154907,181.8273926c-48.567749,48.5678711-113.1420898,75.3154907-181.8273926,75.3154907s-133.2596436-26.7476196-181.8275146-75.3154907c-.5981445-.5981445-1.1576538-1.2243042-1.7491455-1.8273926h107.4425049l38.0670776-.0001221h38.0670776v-71.9998779h-190.3352051l-41.4624023-.0001221h-25.3452759l-51.4285736.0001221H16.4924011c45.8748932,146.0536499,182.3140564,252,343.5075684,252,198.8224182,0,360.0000305-161.1774902,360.0000305-360S558.8223877,0,360,0Z" fill="#939598"></path><polygon points="102.8571472 396 154.2857056 396 205.7142944 396 257.1428528 396 308.5714417 395.9998779 360 395.9998779 360 360 360 324 308.5714417 324 257.1428528 324 205.7142944 324 154.2857056 324 102.8571472 324 51.4285736 324 0 324 0 360 0 396 51.4285736 396 102.8571472 396" fill="#939598"></polygon></g></svg><style>@media (prefers-color-scheme: light) { :root { filter: none; } }
@media (prefers-color-scheme: dark) { :root { filter: none; } }
</style></svg>