<svg xmlns="http://www.w3.org/2000/svg" width="20" height="20" viewBox="0 0 1024 1024">
<g>
		<path
			d="M512,152c-161.1935407,0-297.6329381,105.9466239-343.5077009,252.0001256h34.9362723l51.4285714-.0001256h178.5880999l39.2773158-.0001256h39.2774414v-71.9998744h-183.5767718c.5916295-.6030552,1.1509905-1.2292132,1.7492746-1.8274972,48.5678571-48.5677316,113.1422294-75.3153599,181.8274972-75.3153599s133.2596401,26.7476283,181.8273717,75.3153599c48.5677316,48.5678571,75.3154855,113.1422294,75.3154855,181.8274972s-26.7477539,133.2596401-75.3154855,181.8273717c-48.5677316,48.5678571-113.1421038,75.3154855-181.8273717,75.3154855s-133.2596401-26.7476283-181.8274972-75.3154855c-.5981585-.5981585-1.1576451-1.2243164-1.749149-1.8273717h107.4425223l38.0670619-.0001256h38.0670619v-71.9998744h-190.3351842l-41.4624023-.0001256h-25.3452706l-51.4285714.0001256h-34.9361468c45.8748884,146.0536272,182.3140346,252,343.5075753,252,198.8224051,0,360-161.1774693,360-360s-161.1775949-360-360-360Z"
		/>
		<polygon
			points="254.8571429 548 306.2857143 548 357.7142857 548 409.1428571 548 460.5714286 547.9998744 512 547.9998744 512 512 512 476 460.5714286 476 409.1428571 476 357.7142857 476 306.2857143 476 254.8571429 476 203.4285714 476 152 476 152 512 152 548 203.4285714 548 254.8571429 548"
		/>
	</g>
</svg>
